<svg id="SvgjsSvg1000" xmlns="http://www.w3.org/2000/svg" version="1.1" xmlns:xlink="http://www.w3.org/1999/xlink" xmlns:svgjs="http://svgjs.com/svgjs" width="87" height="71" viewBox="0 0 87 71"><title>Forma 1</title><desc>Created with Avocode.</desc><defs id="SvgjsDefs1001"></defs><path id="SvgjsPath1007" d="M523.198 3552.63C523.198 3552.63 523.989 3549.33 521.2669999999999 3546.5C518.5429999999999 3543.66 515.1329999999999 3543.66 515.1329999999999 3543.66C515.1329999999999 3543.66 514.3019999999999 3547.5299999999997 516.9599999999999 3550.29C519.617 3553.06 523.198 3552.63 523.198 3552.63ZM564.807 3555.3V3525.1200000000003H557.761C557.7049999999999 3526.3700000000003 557.413 3527.4100000000003 556.88 3528.26C556.349 3529.1200000000003 555.67 3529.8 554.843 3530.3C554.009 3530.8100000000004 553.081 3531.17 552.0469999999999 3531.3900000000003C551.0169999999999 3531.6000000000004 549.959 3531.7000000000003 548.8689999999999 3531.6700000000005V3537.9100000000003H555.8739999999999V3555.3ZM537.423 3539.37C537.202 3538.14 537.071 3536.88 537.071 3535.5899999999997C537.071 3523.91 546.4350000000001 3514.3999999999996 557.986 3514.2999999999997V3514.31C569.558 3514.39 578.949 3523.91 578.949 3535.6C578.949 3536.9 578.817 3538.16 578.5999999999999 3539.38H583.896C584.0699999999999 3538.1400000000003 584.192 3536.8900000000003 584.192 3535.6C584.192 3521.0099999999998 572.473 3509.12 558.035 3509.02V3509C543.574 3509.08 531.8299999999999 3520.98 531.8299999999999 3535.59C531.8299999999999 3536.88 531.9519999999999 3538.13 532.1279999999999 3539.3700000000003ZM529.178 3552C529.178 3552 532.341 3550.25 532.904 3546.44C533.467 3542.63 530.559 3539.9700000000003 530.559 3539.9700000000003C530.559 3539.9700000000003 527.7909999999999 3541.9700000000003 527.211 3545.88C526.635 3549.79 529.178 3552 529.178 3552ZM531.253 3555.77C531.1890000000001 3559.72 533.995 3561.58 533.995 3561.58C533.995 3561.58 536.903 3559.42 536.972 3555.5699999999997C537.034 3551.7099999999996 533.807 3549.4599999999996 533.807 3549.4599999999996C533.807 3549.4599999999996 531.318 3551.8099999999995 531.253 3555.7699999999995ZM539.841 3555.04C539.841 3555.04 537.585 3557.61 537.886 3561.56C538.188 3565.5 541.154 3567.08 541.154 3567.08C541.154 3567.08 543.852 3564.66 543.559 3560.8199999999997C543.262 3556.9799999999996 539.841 3555.0399999999995 539.841 3555.0399999999995ZM550.145 3571.82C550.145 3571.82 552.04 3568.7200000000003 550.662 3565.1200000000003C549.282 3561.53 545.451 3560.6700000000005 545.451 3560.6700000000005C545.451 3560.6700000000005 544.025 3563.8000000000006 545.44 3567.4800000000005C546.8530000000001 3571.1800000000003 550.1450000000001 3571.8200000000006 550.1450000000001 3571.8200000000006ZM524.479 3544.2C524.479 3544.2 526.9490000000001 3541.8999999999996 526.2420000000001 3538.0099999999998C525.542 3534.1299999999997 522.7070000000001 3532.22 522.7070000000001 3532.22C522.7070000000001 3532.22 519.8900000000001 3534.97 520.5770000000001 3538.7599999999998C521.2620000000001 3542.5499999999997 524.4790000000002 3544.2 524.4790000000002 3544.2ZM526.508 3560.07C526.508 3560.07 526.302 3556.69 522.8710000000001 3554.79C519.4380000000001 3552.88 516.1800000000001 3553.89 516.1800000000001 3553.89C516.1800000000001 3553.89 516.518 3557.8399999999997 519.865 3559.7C523.2090000000001 3561.56 526.508 3560.0699999999997 526.508 3560.0699999999997ZM532.312 3566.62C532.312 3566.62 531.367 3563.37 527.6030000000001 3562.2799999999997C523.835 3561.2 520.8820000000001 3562.91 520.8820000000001 3562.91C520.8820000000001 3562.91 522.081 3566.68 525.7510000000001 3567.74C529.4220000000001 3568.7999999999997 532.3120000000001 3566.62 532.3120000000001 3566.62ZM538.784 3571.27C538.784 3571.27 536.908 3568.46 532.994 3568.57C529.076 3568.69 526.779 3571.23 526.779 3571.23C526.779 3571.23 529.051 3574.46 532.867 3574.35C536.684 3574.24 538.784 3571.27 538.784 3571.27ZM541.552 3573.17C537.677 3573.75 535.6940000000001 3576.55 535.6940000000001 3576.55C535.6940000000001 3576.55 538.335 3579.48 542.109 3578.9100000000003C545.8870000000001 3578.34 547.618 3575.1400000000003 547.618 3575.1400000000003C547.618 3575.1400000000003 545.421 3572.5800000000004 541.552 3573.1700000000005ZM525.764 3546.12L523.9 3546.0499999999997C523.8919999999999 3546.2599999999998 523.526 3566.7 554.1179999999999 3575.7599999999998L554.6419999999999 3573.95C525.5139999999999 3565.3199999999997 525.7389999999999 3546.8999999999996 525.7639999999999 3546.12ZM592.821 3552.64C592.821 3552.64 596.405 3553.08 599.0600000000001 3550.31C601.715 3547.54 600.8860000000001 3543.67 600.8860000000001 3543.67C600.8860000000001 3543.67 597.4770000000001 3543.67 594.753 3546.51C592.029 3549.3500000000004 592.821 3552.6400000000003 592.821 3552.6400000000003ZM583.113 3546.45C583.6790000000001 3550.27 586.839 3552.02 586.839 3552.02C586.839 3552.02 589.384 3549.8 588.8080000000001 3545.9C588.2320000000001 3541.9900000000002 585.4600000000002 3539.98 585.4600000000002 3539.98C585.4600000000002 3539.98 582.5530000000001 3542.64 583.1130000000002 3546.45ZM579.05 3555.58C579.116 3559.43 582.0279999999999 3561.59 582.0279999999999 3561.59C582.0279999999999 3561.59 584.834 3559.73 584.7679999999999 3555.78C584.704 3551.8300000000004 582.2149999999999 3549.4700000000003 582.2149999999999 3549.4700000000003C582.2149999999999 3549.4700000000003 578.9909999999999 3551.7300000000005 579.05 3555.5800000000004ZM572.459 3560.83C572.169 3564.67 574.8639999999999 3567.1 574.8639999999999 3567.1C574.8639999999999 3567.1 577.834 3565.5099999999998 578.1349999999999 3561.5699999999997C578.4339999999999 3557.6299999999997 576.1769999999999 3555.0499999999997 576.1769999999999 3555.0499999999997C576.1769999999999 3555.0499999999997 572.7549999999999 3556.99 572.459 3560.83ZM565.36 3565.14C563.9830000000001 3568.74 565.875 3571.8399999999997 565.875 3571.8399999999997C565.875 3571.8399999999997 569.17 3571.1899999999996 570.584 3567.4999999999995C571.9949999999999 3563.8199999999997 570.573 3560.6899999999996 570.573 3560.6899999999996C570.573 3560.6899999999996 566.742 3561.5499999999997 565.36 3565.1399999999994ZM595.445 3538.78C596.1320000000001 3534.9900000000002 593.316 3532.23 593.316 3532.23C593.316 3532.23 590.48 3534.14 589.777 3538.03C589.075 3541.92 591.543 3544.21 591.543 3544.21C591.543 3544.21 594.761 3542.57 595.445 3538.78ZM593.149 3554.8C589.719 3556.71 589.513 3560.09 589.513 3560.09C589.513 3560.09 592.811 3561.57 596.1610000000001 3559.71C599.504 3557.86 599.845 3553.91 599.845 3553.91C599.845 3553.91 596.5840000000001 3552.8999999999996 593.149 3554.7999999999997ZM588.419 3562.3C584.654 3563.38 583.711 3566.63 583.711 3566.63C583.711 3566.63 586.601 3568.82 590.272 3567.76C593.942 3566.7000000000003 595.139 3562.9300000000003 595.139 3562.9300000000003C595.139 3562.9300000000003 592.187 3561.2100000000005 588.419 3562.3ZM583.026 3568.59C579.1129999999999 3568.4700000000003 577.237 3571.28 577.237 3571.28C577.237 3571.28 579.3349999999999 3574.25 583.153 3574.36C586.969 3574.4700000000003 589.241 3571.2400000000002 589.241 3571.2400000000002C589.241 3571.2400000000002 586.9449999999999 3568.71 583.026 3568.59ZM574.47 3573.18C570.599 3572.5899999999997 568.403 3575.16 568.403 3575.16C568.403 3575.16 570.134 3578.35 573.913 3578.93C577.686 3579.5 580.328 3576.5699999999997 580.328 3576.5699999999997C580.328 3576.5699999999997 578.347 3573.7699999999995 574.47 3573.18ZM592.124 3546.07L590.261 3546.13C590.285 3546.92 590.507 3565.34 561.3829999999999 3573.96L561.906 3575.77C592.4989999999999 3566.71 592.1289999999999 3546.27 592.1239999999999 3546.07Z " fill="#f8fcfd" fill-opacity="1" transform="matrix(1,0,0,1,-515,-3509)"></path></svg>