<svg id="SvgjsSvg1011" xmlns="http://www.w3.org/2000/svg" version="1.1" xmlns:xlink="http://www.w3.org/1999/xlink" xmlns:svgjs="http://svgjs.com/svgjs" width="54" height="70" viewBox="0 0 54 70"><title>Forma 1</title><desc>Created with Avocode.</desc><defs id="SvgjsDefs1012"></defs><path id="SvgjsPath1013" d="M1332.44 3553.43H1327.47V3548.6699999999996C1328.67 3547.2799999999997 1329.59 3545.7499999999995 1330.3600000000001 3544.22C1330.67 3544.1699999999996 1331.0100000000002 3544.0699999999997 1331.3100000000002 3543.93C1332.6900000000003 3543.27 1333.9700000000003 3541.68 1334.68 3539.6699999999996C1335.51 3537.3599999999997 1335.42 3534.9199999999996 1334.51 3533.5699999999997C1334.6299999999999 3531.0699999999997 1334.55 3524.1 1330.11 3519.2099999999996C1329.37 3518.3899999999994 1328.56 3517.6899999999996 1327.6599999999999 3517.0899999999997C1326.8899999999999 3512.4599999999996 1323.0199999999998 3508.9999999999995 1318.2299999999998 3508.9999999999995C1313.5099999999998 3508.9999999999995 1309.2099999999998 3512.3699999999994 1308.36 3516.9099999999994C1306.6699999999998 3517.8699999999994 1305.25 3519.109999999999 1304.1299999999999 3520.6199999999994C1301.6699999999998 3523.9399999999996 1300.8999999999999 3528.6199999999994 1301.8799999999999 3533.5699999999993C1300.61 3534.8199999999993 1300.34 3536.999999999999 1301.3 3539.669999999999C1301.78 3541.019999999999 1302.51 3542.209999999999 1303.37 3543.0299999999993C1304.08 3543.6999999999994 1304.86 3544.109999999999 1305.6399999999999 3544.229999999999C1306.4499999999998 3545.829999999999 1307.4099999999999 3547.429999999999 1308.61 3548.869999999999V3553.429999999999H1303.56C1296.4299999999998 3553.429999999999 1291 3565.539999999999 1291 3571.569999999999C1291 3572.239999999999 1291.4 3572.8799999999987 1292.01 3573.1699999999987C1301.6 3577.6099999999988 1310.6299999999999 3578.9999999999986 1318.15 3578.9999999999986C1322.1100000000001 3578.9999999999986 1325.65 3578.6299999999987 1328.6200000000001 3578.1099999999988C1337.99 3576.4799999999987 1343.8600000000001 3573.2699999999986 1344.1000000000001 3573.139999999999C1344.66 3572.829999999999 1345.0000000000002 3572.189999999999 1345.0000000000002 3571.559999999999C1345.0000000000002 3565.539999999999 1339.5700000000002 3553.429999999999 1332.4400000000003 3553.429999999999ZM1305.81 3536.45C1306.58 3535.5499999999997 1308.77 3532.89 1310.12 3529.9399999999996C1312.9299999999998 3532.8299999999995 1318.9399999999998 3536.2299999999996 1331.7299999999998 3536.2499999999995C1331.7799999999997 3536.7299999999996 1331.7399999999998 3537.5199999999995 1331.3799999999999 3538.5199999999995C1330.9099999999999 3539.8399999999997 1330.2299999999998 3540.5399999999995 1329.9099999999999 3540.7399999999993C1329.55 3540.6199999999994 1329.1499999999999 3540.629999999999 1328.79 3540.7499999999995C1328.33 3540.9099999999994 1327.95 3541.2499999999995 1327.75 3541.6899999999996C1325.86 3545.8999999999996 1322.14 3550.8199999999997 1318 3550.8199999999997C1315.82 3550.8199999999997 1313.8 3549.45 1312.07 3547.5499999999997C1312.8999999999999 3547.7 1313.6599999999999 3547.7499999999995 1314.29 3547.7499999999995C1314.37 3547.7499999999995 1314.45 3547.7699999999995 1314.52 3547.7699999999995C1314.97 3548.3399999999997 1315.66 3548.7199999999993 1316.44 3548.7199999999993H1319.56C1320.8999999999999 3548.7199999999993 1321.98 3547.609999999999 1321.98 3546.2799999999993V3545.5299999999993C1321.98 3544.1999999999994 1320.9 3543.0599999999995 1319.56 3543.0599999999995H1316.44C1315.55 3543.0599999999995 1314.78 3543.5599999999995 1314.3500000000001 3544.2599999999993C1313.64 3544.2799999999993 1312.6200000000001 3544.209999999999 1311.5200000000002 3543.8099999999995C1308.8400000000001 3542.8199999999997 1306.89 3540.2799999999993 1305.8100000000002 3536.4499999999994ZM1318.23 3512.48C1320.33 3512.48 1321.96 3513.52 1323.1100000000001 3515.12C1321.66 3514.7599999999998 1319.8300000000002 3514.58 1318.16 3514.58C1316.25 3514.59 1314.43 3514.7999999999997 1312.77 3515.2C1313.91 3513.5499999999997 1316.1 3512.48 1318.23 3512.48ZM1306.93 3522.67C1309.14 3519.69 1312.9 3518.09 1318.16 3518.05C1321.98 3518.05 1325.3600000000001 3519.2200000000003 1327.45 3521.51C1330.5900000000001 3524.96 1331.01 3530.19 1331 3532.7700000000004C1321.67 3532.6600000000003 1316.77 3530.6300000000006 1314.28 3528.9200000000005C1311.76 3527.1900000000005 1311.24 3525.5200000000004 1311.18 3525.3100000000004C1311.04 3524.4200000000005 1310.23 3523.8200000000006 1309.3200000000002 3523.8900000000003C1308.4 3523.9600000000005 1307.7000000000003 3524.7500000000005 1307.7000000000003 3525.6600000000003C1307.7000000000003 3527.26 1306.4800000000002 3529.5600000000004 1305.1300000000003 3531.55C1304.6500000000003 3528.03 1305.2500000000002 3524.9500000000003 1306.9300000000003 3522.67ZM1311.95 3555.29V3552.25C1313.8600000000001 3553.51 1315.78 3554.29 1317.92 3554.29C1320.13 3554.29 1322.22 3553.46 1324.13 3552.13V3555.29C1324.13 3556.25 1324.89 3556.97 1325.8600000000001 3556.97H1327.7500000000002L1318.0000000000002 3564.49L1308.2500000000002 3556.97H1310.3700000000001C1311.3400000000001 3556.97 1311.95 3556.25 1311.95 3555.29ZM1328.01 3574.69C1320.1 3576.07 1307.96 3576.43 1294.59 3570.54C1295.1299999999999 3565.68 1298.98 3558.21 1302.6999999999998 3557.16L1316.9199999999998 3568.1299999999997C1317.2299999999998 3568.3699999999994 1317.62 3568.4999999999995 1317.9999999999998 3568.4999999999995C1318.3799999999999 3568.4999999999995 1318.7699999999998 3568.3699999999994 1319.0799999999997 3568.1299999999997L1333.2999999999997 3557.16C1337.0299999999997 3558.21 1340.8999999999996 3565.73 1341.4199999999996 3570.5899999999997C1339.4799999999996 3571.5099999999998 1334.6799999999996 3573.5399999999995 1328.0099999999995 3574.6899999999996Z " fill="#f8fcfd" fill-opacity="1" transform="matrix(1,0,0,1,-1291,-3509)"></path></svg>