<svg id="SvgjsSvg1008" xmlns="http://www.w3.org/2000/svg" version="1.1" xmlns:xlink="http://www.w3.org/1999/xlink" xmlns:svgjs="http://svgjs.com/svgjs" width="70" height="70" viewBox="0 0 70 70"><title>Forma 1</title><desc>Created with Avocode.</desc><defs id="SvgjsDefs1009"></defs><path id="SvgjsPath1010" d="M1093.42 3552.32C1089.3400000000001 3552.57 1083.98 3556.63 1078.8000000000002 3558.9700000000003C1072.4600000000003 3561.82 1062.5800000000002 3559.53 1062.5800000000002 3559.53C1064.1100000000001 3558.82 1070.3000000000002 3557.3500000000004 1071.5400000000002 3556.8C1078.1700000000003 3553.9 1077.6000000000001 3547.84 1074.4500000000003 3547.8900000000003C1070.2800000000002 3547.9600000000005 1067.8300000000004 3548.9800000000005 1059.5200000000002 3550.11C1053.2100000000003 3550.9700000000003 1045.7500000000002 3550.6600000000003 1042.1800000000003 3552.02C1037.1300000000003 3553.94 1029.0000000000002 3566.86 1029.0000000000002 3566.86L1041.5700000000002 3579C1041.5700000000002 3579 1049.3600000000001 3571.36 1053.14 3571.36C1061.7700000000002 3571.36 1062.1200000000001 3571.2400000000002 1070.13 3570.81C1073.5400000000002 3570.63 1074.25 3570.49 1076.2 3569.84C1086.5900000000001 3566.34 1097.74 3557.02 1097.95 3555.9C1098.42 3553.31 1095.57 3552.19 1093.42 3552.32ZM1041.57 3543.53C1041.9199999999998 3543.75 1042.35 3543.7900000000004 1042.72 3543.6200000000003C1049.45 3540.61 1056.27 3540.61 1063 3543.6200000000003C1063.32 3543.76 1063.68 3543.76 1064 3543.6200000000003C1070.72 3540.61 1077.55 3540.61 1084.27 3543.6200000000003C1084.43 3543.6900000000005 1084.6 3543.7300000000005 1084.77 3543.7300000000005C1085 3543.7300000000005 1085.23 3543.6600000000003 1085.43 3543.5300000000007C1085.77 3543.310000000001 1085.98 3542.9300000000007 1085.98 3542.5200000000004V3512.5400000000004C1085.98 3511.7200000000003 1085.28 3511.4500000000003 1085.26 3511.4400000000005C1081.65 3509.8200000000006 1077.94 3509.0000000000005 1074.25 3509.0000000000005C1071.01 3509.0000000000005 1067.75 3509.6400000000003 1064.55 3510.8900000000003V3525.61C1064.55 3526.19 1064.08 3526.6600000000003 1063.5 3526.6600000000003C1062.92 3526.6600000000003 1062.45 3526.1900000000005 1062.45 3525.61V3510.8900000000003C1059.25 3509.6400000000003 1055.99 3509.0000000000005 1052.75 3509.0000000000005C1049.06 3509.0000000000005 1045.35 3509.8200000000006 1041.74 3511.4400000000005C1041.72 3511.4500000000007 1041.02 3511.8000000000006 1041.02 3512.5400000000004V3542.5200000000004C1041.02 3542.9300000000003 1041.23 3543.3100000000004 1041.57 3543.5300000000007ZM1052.75 3535C1056.26 3535 1059.8 3535.79 1063.25 3537.33C1063.41 3537.4 1063.59 3537.4 1063.74 3537.33C1067.2 3535.79 1070.74 3535 1074.25 3535C1077.37 3535 1080.49 3535.62 1083.56 3536.83V3540.72C1080.45 3539.5499999999997 1077.29 3538.9599999999996 1074.1299999999999 3538.9599999999996C1070.57 3538.9599999999996 1066.9899999999998 3539.72 1063.4999999999998 3541.2099999999996C1060.0099999999998 3539.72 1056.4299999999998 3538.9599999999996 1052.8699999999997 3538.9599999999996C1049.7099999999996 3538.9599999999996 1046.5499999999997 3539.5499999999997 1043.4399999999996 3540.72V3536.83C1046.5099999999995 3535.62 1049.6299999999997 3535 1052.7499999999995 3535Z " fill="#f8fcfd" fill-opacity="1" transform="matrix(1,0,0,1,-1029,-3509)"></path></svg>