<?xml version="1.0" encoding="utf-8"?>
<!-- Generator: Adobe Illustrator 20.0.0, SVG Export Plug-In . SVG Version: 6.00 Build 0)  -->
<svg version="1.1" id="Layer_1" xmlns="http://www.w3.org/2000/svg" xmlns:xlink="http://www.w3.org/1999/xlink" x="0px" y="0px"
	 viewBox="0 0 450.2 96.2" style="enable-background:new 0 0 450.2 96.2;" xml:space="preserve">
<style type="text/css">
	.st0{fill:#2D2978;}
	.st1{font-family:'Roboto-Light';}
	.st2{font-size:20.6652px;}
	.st3{letter-spacing:4;}
	.st4{font-family:'Lato-Black';}
	.st5{font-size:54.7062px;}
	.st6{letter-spacing:-4;}
	.st7{font-family:'Lato-Light';}
	.st8{fill:none;}
	.st9{fill:#49A7D6;}
	.st10{fill:#46BEB2;}
	.st11{fill:#A0C515;}
	.st12{opacity:0.6;fill:#46BEB2;}
	.st13{fill:#619E32;}
	.st5{text-transform:uppercase;}
</style>
<g>
	<g>
		<text transform="matrix(1 0 0 1 116.7123 83.1435)" class="st0 st1 st2 st3">discover a different world</text>
	</g>
	<g>
		<text transform="matrix(1 0 0 1 113.9789 55.0068)"><tspan x="0" y="0" class="st0 st4 st5 st6">Miraz </tspan><tspan x="164.9" y="0" class="st0 st7 st5">Tours</tspan></text>
	</g>
	<polygon class="st8" points="71.1,90.6 96.8,90.6 64.6,48.9 48.4,69.8 32.2,48.9 0,90.6 25.7,90.6 	"/>
	<g>
		<polygon class="st9" points="1.6,0 1.6,79.9 32.2,40.3 48.4,61.2 64.6,40.3 97.4,82.7 97.4,0 		"/>
		<polygon class="st10" points="1.6,88.5 1.6,88.5 23.4,60.3 		"/>
		<polygon class="st11" points="64.6,48.9 56.5,59.4 48.4,69.5 59.7,84.4 68.8,96.2 97.4,96.2 97.4,91.3 96.8,90.6 		"/>
		<polygon class="st12" points="37.2,55.3 32.2,48.9 23.4,60.3 32.2,48.9 		"/>
		<polyline class="st13" points="37.2,55.3 32.2,48.9 23.4,60.3 1.6,88.5 1.6,96.2 27.6,96.2 48.4,69.5 		"/>
		<polygon class="st12" points="68.8,96.2 68.8,96.2 59.7,84.4 		"/>
	</g>
	<polygon class="st0" points="69.2,96.3 48.4,69.5 27.6,96.3 	"/>
</g>
</svg>
